<svg width="202" height="202" viewBox="0 0 202 202" fill="none" xmlns="http://www.w3.org/2000/svg">
<path d="M201 101C201 156.226 156.231 201 101 201C45.7691 201 1 156.226 1 101C1 45.7739 45.7691 1 101 1C156.231 1 201 45.7739 201 101Z" stroke="#DC5052"/>
<path d="M71.6667 51H76.175V55.4542H80.3V51H84.8084V64.4833H80.3V59.9708H76.175V64.4833H71.6709V51H71.6667ZM90.7334 55.4708H86.7667V51H99.2125V55.4708H95.2417V64.4833H90.7334V55.4708V55.4708ZM101.188 51H105.888L108.779 55.7375L111.667 51H116.367V64.4833H111.879V57.8L108.779 62.5958H108.7L105.596 57.8042V64.4833H101.188V51V51ZM118.608 51H123.121V60.0292H129.454V64.4875H118.608V51V51Z" fill="#DC5052"/>
<path fill-rule="evenodd" clip-rule="evenodd" d="M71.525 142.967L63 70.6542H138L129.471 142.958L100.458 151L71.525 142.967ZM88.7625 103.383L87.9542 94.3H121.892L122.683 85.4333H78.2667L80.6583 112.254H111.396L110.367 123.754L100.475 126.429H100.467L90.5917 123.763L89.9583 116.692H81.05L82.2917 130.617L100.458 135.658L118.654 130.617L120.871 105.767L121.087 103.388H88.7625V103.383Z" fill="#DC5052"/>
</svg>
