<svg width="202" height="202" viewBox="0 0 202 202" fill="none" xmlns="http://www.w3.org/2000/svg">
<path d="M201 101C201 156.226 156.231 201 101 201C45.7691 201 1 156.226 1 101C1 45.7739 45.7691 1 101 1C156.231 1 201 45.7739 201 101Z" stroke="#DC5052"/>
<g clip-path="url(#clip0_33_116)">
<path d="M51 51H151V151H51V51Z" fill="#DC5052"/>
<path d="M77.2937 134.567L84.9461 129.936C86.4226 132.554 87.7656 134.768 90.9871 134.768C94.075 134.768 96.0222 133.561 96.0222 128.862V96.9098H105.42V128.995C105.42 138.728 99.714 143.159 91.3898 143.159C83.8722 143.159 79.5086 139.265 77.2933 134.566M110.524 133.56L118.175 129.13C120.19 132.42 122.808 134.836 127.439 134.836C131.333 134.836 133.816 132.889 133.816 130.204C133.816 126.982 131.265 125.841 126.969 123.962L124.62 122.954C117.84 120.068 113.343 116.443 113.343 108.791C113.343 101.743 118.713 96.3723 127.104 96.3723C133.078 96.3723 137.374 98.4535 140.462 103.891L133.145 108.59C131.533 105.703 129.789 104.562 127.103 104.562C124.351 104.562 122.606 106.308 122.606 108.59C122.606 111.409 124.351 112.551 128.378 114.296L130.728 115.303C138.716 118.727 143.213 122.217 143.213 130.07C143.213 138.529 136.568 143.16 127.64 143.16C118.914 143.16 113.275 138.998 110.523 133.561" fill="black"/>
</g>
<defs>
<clipPath id="clip0_33_116">
<rect width="100" height="100" fill="white" transform="translate(51 51)"/>
</clipPath>
</defs>
</svg>
