<svg width="80" height="80" viewBox="0 0 80 80" fill="none" xmlns="http://www.w3.org/2000/svg">
<g filter="url(#filter0_i_244_2)">
<path d="M40 6.66675C25.2967 6.66675 13.3333 18.6301 13.3333 33.3167C13.2367 54.8001 37.0533 71.9967 38.0667 72.7134C38.6308 73.1163 39.3068 73.3329 40 73.3329C40.6932 73.3329 41.3692 73.1163 41.9333 72.7134C42.9467 71.9967 66.7633 54.8001 66.6667 33.3334C66.6667 18.6301 54.7033 6.66675 40 6.66675ZM40 65.7834C34.63 61.4234 19.93 48.1367 20 33.3334C20 22.3034 28.97 13.3334 40 13.3334C51.03 13.3334 60 22.3034 60 33.3501C60.07 48.1401 45.3733 61.4267 40 65.7834Z" fill="white"/>
<path d="M36.6667 38.6201L29.0233 30.9767L24.31 35.6901L36.6667 48.0467L55.69 29.0234L50.9767 24.3101L36.6667 38.6201Z" fill="white"/>
</g>
<defs>
<filter id="filter0_i_244_2" x="0" y="0" width="80" height="84" filterUnits="userSpaceOnUse" color-interpolation-filters="sRGB">
<feFlood flood-opacity="0" result="BackgroundImageFix"/>
<feBlend mode="normal" in="SourceGraphic" in2="BackgroundImageFix" result="shape"/>
<feColorMatrix in="SourceAlpha" type="matrix" values="0 0 0 0 0 0 0 0 0 0 0 0 0 0 0 0 0 0 127 0" result="hardAlpha"/>
<feOffset dy="4"/>
<feGaussianBlur stdDeviation="2"/>
<feComposite in2="hardAlpha" operator="arithmetic" k2="-1" k3="1"/>
<feColorMatrix type="matrix" values="0 0 0 0 0 0 0 0 0 0 0 0 0 0 0 0 0 0 0.9 0"/>
<feBlend mode="normal" in2="shape" result="effect1_innerShadow_244_2"/>
</filter>
</defs>
</svg>
