<svg width="989" height="977" viewBox="0 0 989 977" fill="none" xmlns="http://www.w3.org/2000/svg">
<g filter="url(#filter0_d_208_4)">
<path d="M984 484.5C984 751.518 764.855 968 494.5 968C224.145 968 5 751.518 5 484.5C5 217.482 224.145 1 494.5 1C764.855 1 984 217.482 984 484.5Z" stroke="#DC5052" stroke-width="2"/>
<path d="M382.061 545.527C426.03 548.14 435.427 547.193 435.427 554.95C435.427 570.734 376.086 570.782 376.086 556.15C376.095 552.133 379.065 548.731 382.061 545.527V545.527ZM407.363 453.475C378.132 453.475 376.811 488.571 406.684 488.571C436.115 488.571 435.391 453.475 407.363 453.475V453.475ZM696.561 344.882V622.679C696.561 632.726 691.983 642.362 683.834 649.466C675.685 656.57 664.632 660.561 653.108 660.561H334.453C322.929 660.561 311.876 656.57 303.727 649.466C295.578 642.362 291 632.726 291 622.679V344.882C291 334.835 295.578 325.199 303.727 318.095C311.876 310.991 322.929 307 334.453 307H653.108C664.632 307 675.685 310.991 683.834 318.095C691.983 325.199 696.561 334.835 696.561 344.882V344.882ZM491.065 399.581C491.065 411.016 498.651 417.638 511.759 417.638C525.103 417.638 532.698 411.016 532.698 399.581C532.698 388.145 525.121 381.974 511.777 381.974C498.669 381.974 491.065 388.161 491.065 399.581ZM471.312 435.639H426.456C403.824 430.47 352.622 431.812 352.622 472.534C352.622 487.371 361.131 497.789 372.402 502.611C358.198 513.952 351.472 519.294 351.472 526.871C351.472 532.292 353.998 537.304 361.593 540.098C353.536 546.727 348.919 551.525 348.919 560.554C348.937 576.393 364.807 585.587 406.44 585.587C446.471 585.587 469.691 572.557 469.691 549.497C469.691 520.557 444.135 521.623 383.899 518.418L391.485 507.819C406.875 511.56 458.647 512.736 458.647 474.334C458.647 465.108 454.274 458.692 450.137 454.075L471.303 452.67L471.312 435.639ZM547.662 522.325L535.894 520.92C532.435 520.518 532.209 520.131 532.209 516.903V433.682H484.592L482.066 449.916C496.324 454.296 497.456 453.751 497.456 457.942V516.927C497.456 521.362 497.175 520.541 482.066 522.349V538.18H547.626L547.662 522.325ZM638.624 530.343L632.404 512.689C595.352 524.819 598.14 502.895 598.14 499.485V451.565H632.404V431.512H599.978C597.38 431.512 598.167 433.501 598.167 401.025H576.278C573.752 422.886 565.704 431.709 545.499 433.714V451.565C564.029 451.565 563.441 450.895 563.441 453.57V506.107C563.441 528.773 573.788 538.393 601.164 538.393C614.245 538.393 628.729 534.581 638.624 530.343Z" fill="#DC5052"/>
</g>
<defs>
<filter id="filter0_d_208_4" x="0" y="0" width="989" height="977" filterUnits="userSpaceOnUse" color-interpolation-filters="sRGB">
<feFlood flood-opacity="0" result="BackgroundImageFix"/>
<feColorMatrix in="SourceAlpha" type="matrix" values="0 0 0 0 0 0 0 0 0 0 0 0 0 0 0 0 0 0 127 0" result="hardAlpha"/>
<feOffset dy="4"/>
<feGaussianBlur stdDeviation="2"/>
<feComposite in2="hardAlpha" operator="out"/>
<feColorMatrix type="matrix" values="0 0 0 0 0 0 0 0 0 0 0 0 0 0 0 0 0 0 0.25 0"/>
<feBlend mode="normal" in2="BackgroundImageFix" result="effect1_dropShadow_208_4"/>
<feBlend mode="normal" in="SourceGraphic" in2="effect1_dropShadow_208_4" result="shape"/>
</filter>
</defs>
</svg>
