<svg width="989" height="977" viewBox="0 0 989 977" fill="none" xmlns="http://www.w3.org/2000/svg">
<g filter="url(#filter0_d_208_4)">
<path d="M984 484.5C984 751.518 764.855 968 494.5 968C224.145 968 5 751.518 5 484.5C5 217.482 224.145 1 494.5 1C764.855 1 984 217.482 984 484.5Z" stroke="#DC5052" stroke-width="2"/>
<path fill-rule="evenodd" clip-rule="evenodd" d="M493.752 276C366.884 276 264 369.034 264 483.78C264 575.567 329.832 653.459 421.141 680.938C432.63 682.834 436.824 676.419 436.824 670.913C436.824 665.978 436.623 652.914 436.508 635.564C372.6 648.109 359.1 607.722 359.1 607.722C348.645 583.723 333.595 577.334 333.595 577.334C312.742 564.451 335.174 564.711 335.174 564.711C358.239 566.191 370.36 586.112 370.36 586.112C390.868 617.877 424.128 608.708 437.226 603.384C439.322 589.956 445.239 580.788 451.817 575.619C400.806 570.373 347.152 552.556 347.152 472.924C347.152 450.25 356.113 431.705 370.79 417.161C368.464 411.914 360.565 390.773 373.088 362.177C373.088 362.177 392.39 356.593 436.278 383.474C454.603 378.877 474.249 376.566 493.78 376.488C513.283 376.566 532.958 378.877 551.312 383.474C595.171 356.593 614.444 362.177 614.444 362.177C626.967 390.773 619.097 411.914 616.742 417.161C631.476 431.68 640.352 450.224 640.352 472.924C640.352 552.738 586.64 570.321 535.428 575.464C543.672 581.879 551.025 594.553 551.025 613.929C551.025 641.694 550.737 664.108 550.737 670.939C550.737 676.497 554.873 682.964 566.535 680.938C657.786 653.381 723.561 575.567 723.561 483.78C723.561 369.034 620.677 276 493.752 276V276Z" fill="#DC5052"/>
</g>
<defs>
<filter id="filter0_d_208_4" x="0" y="0" width="989" height="977" filterUnits="userSpaceOnUse" color-interpolation-filters="sRGB">
<feFlood flood-opacity="0" result="BackgroundImageFix"/>
<feColorMatrix in="SourceAlpha" type="matrix" values="0 0 0 0 0 0 0 0 0 0 0 0 0 0 0 0 0 0 127 0" result="hardAlpha"/>
<feOffset dy="4"/>
<feGaussianBlur stdDeviation="2"/>
<feComposite in2="hardAlpha" operator="out"/>
<feColorMatrix type="matrix" values="0 0 0 0 0 0 0 0 0 0 0 0 0 0 0 0 0 0 0.25 0"/>
<feBlend mode="normal" in2="BackgroundImageFix" result="effect1_dropShadow_208_4"/>
<feBlend mode="normal" in="SourceGraphic" in2="effect1_dropShadow_208_4" result="shape"/>
</filter>
</defs>
</svg>
