<svg width="981" height="969" viewBox="0 0 981 969" fill="none" xmlns="http://www.w3.org/2000/svg">
<path d="M980 484.5C980 751.518 760.855 968 490.5 968C220.145 968 1 751.518 1 484.5C1 217.482 220.145 1 490.5 1C760.855 1 980 217.482 980 484.5Z" stroke="#DC5052" stroke-width="2"/>
<path d="M279.019 275L317.421 651.21L489.757 693L662.56 651.161L701 275.016H279L279.019 275ZM438.23 372.424L430.594 444.835L611.145 444.851L609.857 457.243L597.442 578.717L596.657 586.511L488.301 612.746L380.094 586.511L372.701 514.067H425.722L429.493 550.868L488.376 564.727L547.296 550.835L553.419 490.995L372.869 490.979L374.157 478.587L386.572 357.113L390.474 323.1H601.194L603.64 349.156L611.164 421.763H558.124L553.233 374.119L499.297 371.282H489.683V371.217L438.249 372.424H438.23Z" fill="#DC5052"/>
</svg>
