<svg width="989" height="977" viewBox="0 0 989 977" fill="none" xmlns="http://www.w3.org/2000/svg">
<g filter="url(#filter0_d_208_4)">
<path d="M984 484.5C984 751.518 764.855 968 494.5 968C224.145 968 5 751.518 5 484.5C5 217.482 224.145 1 494.5 1C764.855 1 984 217.482 984 484.5Z" stroke="#DC5052" stroke-width="2"/>
<path d="M757.954 658.544V658.426C757.954 658.426 655.433 556.023 655.369 555.973C647.241 547.84 634.242 548.017 626.245 556.027L579.055 603.412C560.709 621.762 537.053 605.479 491.645 568.452C461.603 543.955 427.037 511.013 397.067 473.873C376.034 447.816 357.435 420.451 376.649 401.241C376.699 401.191 424.034 353.979 424.025 353.929L424.061 353.829C432.555 345.335 431.732 332.322 423.975 324.556V324.438C423.975 324.438 318.491 219.085 318.432 219.022C310.304 210.894 297.309 211.075 289.307 219.076L241.769 266.614C222.184 291.125 178.658 407.944 365.26 599.219C561.836 800.729 688.682 757.623 710.52 734.886C710.52 734.886 758.008 687.958 758.008 687.913L758.049 687.818C766.544 679.319 765.707 666.315 757.954 658.544V658.544Z" fill="#DC5052"/>
</g>
<defs>
<filter id="filter0_d_208_4" x="0" y="0" width="989" height="977" filterUnits="userSpaceOnUse" color-interpolation-filters="sRGB">
<feFlood flood-opacity="0" result="BackgroundImageFix"/>
<feColorMatrix in="SourceAlpha" type="matrix" values="0 0 0 0 0 0 0 0 0 0 0 0 0 0 0 0 0 0 127 0" result="hardAlpha"/>
<feOffset dy="4"/>
<feGaussianBlur stdDeviation="2"/>
<feComposite in2="hardAlpha" operator="out"/>
<feColorMatrix type="matrix" values="0 0 0 0 0 0 0 0 0 0 0 0 0 0 0 0 0 0 0.25 0"/>
<feBlend mode="normal" in2="BackgroundImageFix" result="effect1_dropShadow_208_4"/>
<feBlend mode="normal" in="SourceGraphic" in2="effect1_dropShadow_208_4" result="shape"/>
</filter>
</defs>
</svg>
