<svg width="981" height="969" viewBox="0 0 981 969" fill="none" xmlns="http://www.w3.org/2000/svg">
<path d="M980 484.5C980 751.518 760.855 968 490.5 968C220.145 968 1 751.518 1 484.5C1 217.482 220.145 1 490.5 1C760.855 1 980 217.482 980 484.5Z" stroke="#DC5052" stroke-width="2"/>
<path d="M624.617 375.014V421.51C624.399 438.889 616.595 455.516 602.846 467.896C589.097 480.276 570.473 487.445 550.89 487.896H433.01C417.291 488.173 402.317 493.894 391.29 503.837C380.263 513.78 374.058 527.155 374 541.103V640.806C374 669.177 401.812 685.872 433.01 694.014C471.387 704.662 512.513 704.662 550.89 694.014C580.602 686.382 609.9 671.022 609.9 640.806V600.887H492.018V587.585H668.908C703.208 587.585 715.989 566.359 727.918 534.5C740.027 499.842 740.027 462.743 727.918 428.086C719.437 397.791 703.252 375 668.908 375L624.617 375.014ZM558.317 627.496C562.783 627.435 567.169 628.555 570.915 630.713C574.661 632.871 577.598 635.969 579.351 639.614C581.105 643.258 581.596 647.283 580.762 651.176C579.928 655.069 577.807 658.653 574.668 661.472C571.53 664.292 567.516 666.218 563.139 667.006C558.762 667.794 554.219 667.408 550.09 665.898C545.961 664.387 542.432 661.82 539.954 658.523C537.475 655.227 536.159 651.35 536.173 647.387C536.154 644.791 536.711 642.217 537.814 639.812C538.916 637.407 540.542 635.218 542.599 633.371C544.656 631.523 547.102 630.054 549.799 629.046C552.496 628.038 555.391 627.511 558.317 627.496V627.496Z" fill="#E76A6B"/>
<path d="M485.58 267.005C466.692 267.023 447.839 268.454 429.22 271.283C379.309 279.123 370.248 295.533 370.248 325.793V365.763H488.193V379.092H325.984C308.624 378.81 291.71 383.989 278.229 393.717C264.747 403.445 255.565 417.096 252.304 432.258C241.232 467.102 241.232 503.991 252.304 538.834C260.687 569.879 280.709 592 314.984 592H355.538V544.084C355.968 526.863 363.882 510.46 377.618 498.313C391.355 486.167 409.848 479.222 429.219 478.935H547.025C554.834 478.883 562.554 477.463 569.745 474.756C576.936 472.049 583.457 468.108 588.934 463.159C594.411 458.21 598.737 452.35 601.665 445.914C604.593 439.477 606.065 432.591 605.998 425.648V325.796C605.007 311.976 598.539 298.917 587.742 288.937C576.945 278.957 562.518 272.703 547.025 271.286C526.714 268.334 506.16 266.902 485.58 267.005V267.005ZM421.796 299.153C426.253 299.091 430.63 300.21 434.371 302.366C438.111 304.521 441.046 307.617 442.803 311.26C444.56 314.903 445.059 318.928 444.236 322.823C443.414 326.718 441.307 330.308 438.185 333.137C435.062 335.965 431.064 337.904 426.698 338.707C422.333 339.51 417.798 339.141 413.669 337.647C409.54 336.153 406.004 333.601 403.511 330.315C401.017 327.03 399.679 323.16 399.665 319.196C399.621 313.932 401.926 308.867 406.074 305.11C410.222 301.353 415.875 299.211 421.796 299.153Z" fill="#DC5052"/>
</svg>
