<svg width="989" height="977" viewBox="0 0 989 977" fill="none" xmlns="http://www.w3.org/2000/svg">
<g filter="url(#filter0_d_208_4)">
<path d="M984 484.5C984 751.518 764.855 968 494.5 968C224.145 968 5 751.518 5 484.5C5 217.482 224.145 1 494.5 1C764.855 1 984 217.482 984 484.5Z" stroke="#DC5052" stroke-width="2"/>
<path d="M497.48 498.275L464.9 587.567H464.8L439.57 655.772C441.358 656.238 443.047 656.612 444.835 657.078H445.133C461.173 661.096 477.701 663.135 494.301 663.143C502.58 663.201 510.851 662.639 519.035 661.463C529.986 660.174 540.791 657.957 551.317 654.839C553.9 654.092 556.482 653.253 559.065 652.413C556.283 646.815 550.324 634.405 550.026 633.845L497.48 498.275Z" fill="#DC5052"/>
<path d="M320.473 413.556C310.54 434.642 303.786 460.581 303.786 484C303.786 489.878 304.084 495.756 304.68 501.541C311.534 567.973 357.226 623.769 420.002 648.867C422.585 649.894 425.267 650.92 427.949 651.853L335.571 413.649C327.625 413.369 326.135 413.836 320.473 413.556V413.556Z" fill="#DC5052"/>
<path d="M667.534 408.797C663.26 400.155 658.244 391.855 652.535 383.979C650.945 381.739 649.157 379.5 647.469 377.261C625.946 350.126 596.718 329.236 563.137 316.987C541.235 308.939 517.919 304.825 494.401 304.857C465.91 304.858 437.784 310.869 412.099 322.448C386.413 334.028 363.825 350.878 346.001 371.756C339.544 379.274 333.732 387.261 328.618 395.642C342.723 395.735 360.205 395.735 362.192 395.735C380.171 395.735 407.884 393.682 407.884 393.682C417.221 393.122 418.214 405.905 408.977 406.931C408.977 406.931 399.64 407.958 389.309 408.424L451.788 582.902L489.335 477.189L462.714 408.517C453.377 408.051 444.735 407.025 444.735 407.025C435.398 406.558 436.59 393.216 445.729 393.775C445.729 393.775 474.038 395.828 490.924 395.828C508.903 395.828 536.616 393.775 536.616 393.775C545.854 393.216 547.046 405.998 537.709 407.025C537.709 407.025 528.471 408.051 518.141 408.517L580.023 581.689L597.208 527.946C605.849 507.046 610.22 489.785 610.22 475.976C610.22 456.102 602.571 442.293 596.016 431.563C587.374 418.221 579.229 407.025 579.229 393.869C579.229 379.033 591.148 365.225 608.035 365.225H610.22C636.244 364.571 644.787 388.83 645.879 405.345V405.905C646.277 412.623 645.979 417.568 645.979 423.446C645.979 439.681 642.701 458.062 632.967 481.108L594.228 586.354L572.077 647.654C573.865 646.908 575.554 646.162 577.342 645.322C633.662 619.757 674.685 568.813 683.327 508.446C684.608 500.416 685.239 492.306 685.214 484.187C685.252 458.146 679.217 432.413 667.534 408.797V408.797Z" fill="#DC5052"/>
</g>
<defs>
<filter id="filter0_d_208_4" x="0" y="0" width="989" height="977" filterUnits="userSpaceOnUse" color-interpolation-filters="sRGB">
<feFlood flood-opacity="0" result="BackgroundImageFix"/>
<feColorMatrix in="SourceAlpha" type="matrix" values="0 0 0 0 0 0 0 0 0 0 0 0 0 0 0 0 0 0 127 0" result="hardAlpha"/>
<feOffset dy="4"/>
<feGaussianBlur stdDeviation="2"/>
<feComposite in2="hardAlpha" operator="out"/>
<feColorMatrix type="matrix" values="0 0 0 0 0 0 0 0 0 0 0 0 0 0 0 0 0 0 0.25 0"/>
<feBlend mode="normal" in2="BackgroundImageFix" result="effect1_dropShadow_208_4"/>
<feBlend mode="normal" in="SourceGraphic" in2="effect1_dropShadow_208_4" result="shape"/>
</filter>
</defs>
</svg>
