<svg width="973" height="974" viewBox="0 0 973 974" fill="none" xmlns="http://www.w3.org/2000/svg">
<ellipse cx="486.5" cy="487" rx="486.5" ry="487" fill="white"/>
<path d="M484 39C236.6 39 36 239.6 36 487C36 734.4 236.6 935 484 935C731.4 935 932 734.4 932 487C932 239.6 731.4 39 484 39ZM628.1 493.9L409.7 652.8C408.503 653.66 407.091 654.174 405.621 654.285C404.151 654.395 402.679 654.098 401.366 653.426C400.054 652.755 398.952 651.734 398.181 650.477C397.411 649.22 397.002 647.774 397 646.3V328.7C396.995 327.223 397.399 325.773 398.168 324.511C398.937 323.25 400.04 322.225 401.355 321.552C402.67 320.879 404.146 320.583 405.619 320.698C407.092 320.812 408.504 321.332 409.7 322.2L628.1 481C629.132 481.73 629.973 482.696 630.554 483.819C631.135 484.941 631.438 486.186 631.438 487.45C631.438 488.714 631.135 489.959 630.554 491.081C629.973 492.204 629.132 493.17 628.1 493.9V493.9Z" fill="#F89300"/>
</svg>
