<svg width="202" height="202" viewBox="0 0 202 202" fill="none" xmlns="http://www.w3.org/2000/svg">
<path d="M140.977 61H61.0234C61.0105 61 61 61.0105 61 61.0234V140.977C61 140.99 61.0105 141 61.0234 141H140.977C140.99 141 141 140.99 141 140.977V61.0234C141 61.0105 140.99 61 140.977 61Z" fill="#DC5052"/>
<path d="M86.1677 93.2663H77.1052C77.0038 93.2606 76.9032 93.2879 76.8187 93.3443C76.7341 93.4007 76.6702 93.483 76.6365 93.5788L72.4177 115.61C72.4177 116.079 72.8865 116.079 72.8865 116.079H77.574C78.0427 116.079 78.0427 115.766 78.0427 115.766L79.1365 110.298H83.3552C89.9177 110.298 93.199 105.923 93.9802 102.016C94.7615 98.1101 94.1365 93.2663 86.1677 93.2663ZM88.199 101.704C87.574 104.673 85.5427 105.923 82.7302 105.923H79.9177L81.6365 97.6413H84.449C88.6677 97.6413 88.5115 99.2038 88.199 101.704Z" fill="black" stroke="white" stroke-width="0.738984"/>
<path d="M104.918 110.298C104.293 110.298 104.449 109.673 104.449 109.673L106.324 100.141C106.324 98.8913 107.261 97.6413 103.511 97.7975H100.699L98.3552 109.985C98.3552 109.985 98.3552 110.454 97.7302 110.454H93.199C92.7302 110.454 92.7302 109.985 92.7302 109.985L97.1052 87.9538C97.1052 87.9538 97.1052 87.6413 97.7302 87.6413H102.418C102.886 87.6413 102.73 88.11 102.73 88.11L101.636 93.4225H105.699C111.324 93.4225 112.73 96.0788 112.261 99.2038L110.23 109.985C110.23 109.985 110.23 110.454 109.449 110.454L104.918 110.298Z" fill="black" stroke="white" stroke-width="0.738984"/>
<path d="M123.511 93.2663H114.449C114.348 93.2606 114.247 93.2879 114.162 93.3443C114.078 93.4007 114.014 93.483 113.98 93.5788L109.761 115.61C109.761 116.079 110.23 116.079 110.23 116.079H114.918C115.386 116.079 115.386 115.766 115.386 115.766L116.48 110.298H120.699C127.261 110.298 130.543 105.923 131.324 102.016C132.105 98.1101 131.48 93.2663 123.511 93.2663ZM125.543 101.704C124.918 104.673 122.886 105.923 120.074 105.923H117.261L118.98 97.6413H121.793C126.011 97.6413 125.855 99.2038 125.543 101.704Z" fill="black" stroke="white" stroke-width="0.738984"/>
<path d="M201.355 101.268C201.355 156.494 156.586 201.268 101.355 201.268C46.1241 201.268 1.35492 156.494 1.35492 101.268C1.35492 46.0421 46.1241 1.26816 101.355 1.26816C156.586 1.26816 201.355 46.0421 201.355 101.268Z" stroke="#DC5052"/>
</svg>
