<svg width="58" height="66" viewBox="0 0 58 66" fill="none" xmlns="http://www.w3.org/2000/svg">
<path d="M50.3529 14.2225C49.9099 13.9934 49.4787 13.7422 49.0608 13.47C47.8465 12.6671 46.7331 11.7212 45.7446 10.6525C43.2683 7.82042 42.3437 4.9475 42.0054 2.93792H42.0171C41.7342 1.26667 41.8508 0.1875 41.8712 0.1875H30.5983V43.7712C30.5983 44.3546 30.5983 44.935 30.575 45.5067C30.575 45.5767 30.5662 45.6408 30.5633 45.7196C30.5633 45.7487 30.5633 45.7837 30.5546 45.8158V45.8421C30.4362 47.4055 29.9354 48.9158 29.0962 50.2402C28.257 51.5646 27.1052 52.6624 25.7421 53.4371C24.32 54.2461 22.7115 54.6703 21.0754 54.6679C15.8254 54.6679 11.5671 50.3862 11.5671 45.0983C11.5671 39.8075 15.8254 35.5258 21.0754 35.5258C22.07 35.5258 23.0587 35.6833 24.0037 35.9925L24.0183 24.5125C21.1484 24.1422 18.2328 24.3709 15.4557 25.1842C12.6786 25.9975 10.1002 27.3776 7.88333 29.2375C5.9404 30.9249 4.30687 32.9384 3.05624 35.1875C2.58082 36.0071 0.784158 39.3058 0.568325 44.655C0.431241 47.6883 1.34416 50.8383 1.77874 52.1362V52.1654C2.04999 52.9296 3.11166 55.5429 4.83832 57.745C6.23073 59.5125 7.87588 61.0653 9.72082 62.3533V62.3242L9.74708 62.3533C15.2012 66.0575 21.2533 65.8154 21.2533 65.8154C22.3004 65.7717 25.8092 65.8154 29.7933 63.9283C34.2121 61.8342 36.7262 58.7162 36.7262 58.7162C38.3336 56.8529 39.6119 54.7293 40.5062 52.4367C41.5271 49.7533 41.8654 46.5392 41.8654 45.2558V22.1296C42.0025 22.2112 43.8254 23.4158 43.8254 23.4158C43.8254 23.4158 46.4504 25.0987 50.5425 26.1925C53.4767 26.9712 57.4346 27.1375 57.4346 27.1375V15.9462C56.0492 16.0979 53.2346 15.6604 50.35 14.2254L50.3529 14.2225Z" fill="white"/>
</svg>
