<svg width="62" height="62" viewBox="0 0 62 62" fill="none" xmlns="http://www.w3.org/2000/svg">
<path d="M31 0.375C14.0879 0.375 0.375 14.0879 0.375 31C0.375 47.9121 14.0879 61.625 31 61.625C47.9121 61.625 61.625 47.9121 61.625 31C61.625 14.0879 47.9121 0.375 31 0.375ZM45.7178 23.46C45.7383 23.7813 45.7383 24.1162 45.7383 24.4443C45.7383 34.4795 38.0957 46.0391 24.1299 46.0391C19.8232 46.0391 15.8311 44.7881 12.4678 42.6348C13.083 42.7031 13.6709 42.7305 14.2998 42.7305C17.8545 42.7305 21.1221 41.5273 23.7266 39.4902C20.3906 39.4219 17.5879 37.2344 16.6309 34.2266C17.7998 34.3975 18.8525 34.3975 20.0557 34.0898C18.338 33.7409 16.7941 32.808 15.6862 31.4497C14.5784 30.0914 13.975 28.3915 13.9785 26.6387V26.543C14.9834 27.1104 16.166 27.459 17.4033 27.5068C16.3632 26.8136 15.5102 25.8745 14.9199 24.7727C14.3296 23.6708 14.0204 22.4404 14.0195 21.1904C14.0195 19.7754 14.3887 18.4834 15.0518 17.3623C16.9583 19.7093 19.3374 21.6289 22.0344 22.9962C24.7314 24.3636 27.686 25.1481 30.7061 25.2988C29.6328 20.1377 33.4883 15.9609 38.123 15.9609C40.3105 15.9609 42.2793 16.877 43.667 18.3535C45.3828 18.0322 47.0234 17.3896 48.4863 16.5283C47.9189 18.2852 46.7295 19.7686 45.1504 20.7051C46.6816 20.541 48.1582 20.1172 49.5254 19.5225C48.4932 21.04 47.2012 22.3867 45.7178 23.46V23.46Z" fill="white"/>
</svg>
