<svg width="200" height="200" viewBox="0 0 200 200" fill="none" xmlns="http://www.w3.org/2000/svg">
<path d="M158.525 141.475C154.622 137.736 150.823 133.891 147.133 129.942C144.033 126.792 142.167 124.5 142.167 124.5L118.833 113.358C128.175 102.764 133.331 89.1249 133.333 75C133.333 42.8417 107.167 16.6667 75 16.6667C42.8333 16.6667 16.6667 42.8417 16.6667 75C16.6667 107.158 42.8333 133.333 75 133.333C89.6917 133.333 103.083 127.833 113.358 118.842L124.5 142.175C124.5 142.175 126.792 144.042 129.942 147.142C133.167 150.167 137.408 154.258 141.475 158.533L152.792 170.133L157.825 175.517L175.5 157.842L170.117 152.808C166.958 149.708 162.742 145.592 158.525 141.475V141.475ZM75 116.667C52.025 116.667 33.3333 97.975 33.3333 75C33.3333 52.025 52.025 33.3333 75 33.3333C97.975 33.3333 116.667 52.025 116.667 75C116.667 97.975 97.975 116.667 75 116.667Z" fill="#AFAFAF"/>
</svg>
