<svg width="169" height="160" viewBox="0 0 169 160" fill="none" xmlns="http://www.w3.org/2000/svg">
<path d="M166.5 80C166.5 122.675 129.918 157.5 84.5 157.5C39.082 157.5 2.5 122.675 2.5 80C2.5 37.3251 39.082 2.5 84.5 2.5C129.918 2.5 166.5 37.3251 166.5 80Z" stroke="#EF002B" stroke-width="5"/>
<path d="M125.667 80C125.667 57 107 38.3333 84 38.3333C61 38.3333 42.3333 57 42.3333 80C42.3333 100.167 56.6667 116.958 75.6667 120.833V92.5H67.3333V80H75.6667V69.5833C75.6667 61.5417 82.2083 55 90.25 55H100.667V67.5H92.3333C90.0417 67.5 88.1667 69.375 88.1667 71.6667V80H100.667V92.5H88.1667V121.458C109.208 119.375 125.667 101.625 125.667 80Z" fill="#EF002B"/>
</svg>
