<svg width="169" height="160" viewBox="0 0 169 160" fill="none" xmlns="http://www.w3.org/2000/svg">
<path d="M166.5 80C166.5 122.675 129.918 157.5 84.5 157.5C39.082 157.5 2.5 122.675 2.5 80C2.5 37.3251 39.082 2.5 84.5 2.5C129.918 2.5 166.5 37.3251 166.5 80Z" stroke="#EF002B" stroke-width="5"/>
<path d="M78.5422 88.6822C80.7601 90.792 80.7601 94.2542 78.5422 96.364C76.4324 98.4738 72.9702 98.4738 70.8604 96.364C65.7936 91.2896 62.9477 84.4117 62.9477 77.2408C62.9477 70.0698 65.7936 63.192 70.8604 58.1176L90.0107 38.9673C95.0851 33.9005 101.963 31.0546 109.134 31.0546C116.305 31.0546 123.183 33.9005 128.257 38.9673C133.324 44.0417 136.17 50.9196 136.17 58.0905C136.17 65.2615 133.324 72.1393 128.257 77.2137L120.197 85.2742C120.251 80.8382 119.548 76.4023 118.033 72.1827L120.575 69.5861C122.092 68.0859 123.296 66.2999 124.118 64.3313C124.939 62.3627 125.362 60.2507 125.362 58.1176C125.362 55.9844 124.939 53.8724 124.118 51.9038C123.296 49.9353 122.092 48.1492 120.575 46.649C119.075 45.1325 117.289 43.9286 115.321 43.1069C113.352 42.2852 111.24 41.8621 109.107 41.8621C106.974 41.8621 104.862 42.2852 102.893 43.1069C100.925 43.9286 99.1385 45.1325 97.6383 46.649L78.5422 65.7452C77.0256 67.2454 75.8217 69.0314 75 71C74.1783 72.9686 73.7553 75.0806 73.7553 77.2137C73.7553 79.3469 74.1783 81.4589 75 83.4275C75.8217 85.396 77.0256 87.1821 78.5422 88.6822ZM93.7975 65.7452C95.9072 63.6354 99.3694 63.6354 101.479 65.7452C106.546 70.8196 109.392 77.6975 109.392 84.8684C109.392 92.0394 106.546 98.9172 101.479 103.992L82.3289 123.142C77.2545 128.209 70.3767 131.055 63.2057 131.055C56.0348 131.055 49.1569 128.209 44.0825 123.142C39.0157 118.067 36.1698 111.19 36.1698 104.019C36.1698 96.8477 39.0157 89.9699 44.0825 84.8955L52.1429 76.8351C52.0888 81.271 52.7921 85.7069 54.3068 89.9806L51.7642 92.5231C50.2477 94.0233 49.0438 95.8094 48.2221 97.7779C47.4004 99.7465 46.9773 101.858 46.9773 103.992C46.9773 106.125 47.4004 108.237 48.2221 110.205C49.0438 112.174 50.2477 113.96 51.7642 115.46C53.2644 116.977 55.0505 118.181 57.019 119.002C58.9876 119.824 61.0996 120.247 63.2328 120.247C65.3659 120.247 67.4779 119.824 69.4465 119.002C71.4151 118.181 73.2011 116.977 74.7013 115.46L93.7975 96.364C95.314 94.8638 96.5179 93.0778 97.3396 91.1092C98.1613 89.1406 98.5844 87.0286 98.5844 84.8955C98.5844 82.7623 98.1613 80.6503 97.3396 78.6818C96.5179 76.7132 95.314 74.9271 93.7975 73.427C93.2721 72.9346 92.8533 72.3398 92.567 71.6791C92.2806 71.0185 92.1329 70.3061 92.1329 69.5861C92.1329 68.8661 92.2806 68.1537 92.567 67.4931C92.8533 66.8324 93.2721 66.2375 93.7975 65.7452Z" fill="#EF002B"/>
</svg>
