<svg width="169" height="160" viewBox="0 0 169 160" fill="none" xmlns="http://www.w3.org/2000/svg">
<path d="M166.5 80C166.5 122.675 129.918 157.5 84.5 157.5C39.082 157.5 2.5 122.675 2.5 80C2.5 37.3251 39.082 2.5 84.5 2.5C129.918 2.5 166.5 37.3251 166.5 80Z" stroke="#EF002B" stroke-width="5"/>
<path d="M127.583 55C124.375 56.4583 120.917 57.4167 117.333 57.875C121 55.6667 123.833 52.1667 125.167 47.9583C121.708 50.0417 117.875 51.5 113.833 52.3333C110.542 48.75 105.917 46.6667 100.667 46.6667C90.875 46.6667 82.875 54.6667 82.875 64.5417C82.875 65.9583 83.0417 67.3333 83.3333 68.625C68.5 67.875 55.2917 60.75 46.5 49.9583C44.9583 52.5833 44.0833 55.6667 44.0833 58.9167C44.0833 65.125 47.2083 70.625 52.0417 73.75C49.0833 73.75 46.3333 72.9167 43.9167 71.6667V71.7917C43.9167 80.4583 50.0833 87.7083 58.25 89.3333C55.628 90.0509 52.8754 90.1507 50.2083 89.625C51.34 93.177 53.5564 96.285 56.5459 98.5122C59.5354 100.739 63.1477 101.974 66.875 102.042C60.5568 107.044 52.725 109.747 44.6667 109.708C43.25 109.708 41.8333 109.625 40.4167 109.458C48.3333 114.542 57.75 117.5 67.8333 117.5C100.667 117.5 118.708 90.25 118.708 66.625C118.708 65.8333 118.708 65.0833 118.667 64.2917C122.167 61.7917 125.167 58.625 127.583 55V55Z" fill="#EF002B"/>
</svg>
