<svg width="70" height="60" viewBox="0 0 70 60" fill="none" xmlns="http://www.w3.org/2000/svg">
<g clip-path="url(#clip0_13_8)">
<path d="M26.25 11.25C26.25 14.2337 24.8672 17.0952 22.4058 19.205C19.9444 21.3147 16.606 22.5 13.125 22.5C9.64403 22.5 6.30564 21.3147 3.84422 19.205C1.38281 17.0952 0 14.2337 0 11.25C0 8.26631 1.38281 5.40483 3.84422 3.29505C6.30564 1.18526 9.64403 0 13.125 0C16.606 0 19.9444 1.18526 22.4058 3.29505C24.8672 5.40483 26.25 8.26631 26.25 11.25V11.25ZM4.375 11.25C4.375 13.2391 5.29687 15.1468 6.93782 16.5533C8.57876 17.9598 10.8044 18.75 13.125 18.75C15.4456 18.75 17.6712 17.9598 19.3122 16.5533C20.9531 15.1468 21.875 13.2391 21.875 11.25C21.875 9.26088 20.9531 7.35322 19.3122 5.9467C17.6712 4.54018 15.4456 3.75 13.125 3.75C10.8044 3.75 8.57876 4.54018 6.93782 5.9467C5.29687 7.35322 4.375 9.26088 4.375 11.25V11.25Z" fill="white"/>
<path d="M39.375 22.5H41.5625C43.6848 22.4998 45.7348 23.1607 47.3308 24.3597C48.9269 25.5587 49.9601 27.2141 50.2381 29.0175L63.8444 23.835C64.5104 23.5806 65.24 23.473 65.9668 23.5218C66.6937 23.5707 67.3949 23.7744 68.0065 24.1146C68.6181 24.4548 69.1209 24.9206 69.469 25.4697C69.8172 26.0188 69.9997 26.6338 70 27.2588V55.2412C69.9994 55.8657 69.8168 56.4802 69.4689 57.0288C69.121 57.5775 68.6187 58.043 68.0077 58.3831C67.3967 58.7232 66.6962 58.9271 65.9699 58.9763C65.2437 59.0255 64.5145 58.9185 63.8487 58.665L50.2381 53.4825C49.9601 55.2859 48.9269 56.9413 47.3308 58.1403C45.7348 59.3393 43.6848 60.0002 41.5625 60H8.75C6.42936 60 4.20376 59.2098 2.56282 57.8033C0.921873 56.3968 0 54.4891 0 52.5V30C0 28.0109 0.921873 26.1032 2.56282 24.6967C4.20376 23.2902 6.42936 22.5 8.75 22.5H39.375ZM65.625 55.2375V27.2625L50.3125 33.0937V49.4063L65.625 55.2412V55.2375ZM4.375 30V52.5C4.375 53.4946 4.83594 54.4484 5.65641 55.1516C6.47688 55.8549 7.58968 56.25 8.75 56.25H41.5625C42.7228 56.25 43.8356 55.8549 44.6561 55.1516C45.4766 54.4484 45.9375 53.4946 45.9375 52.5V30C45.9375 29.0054 45.4766 28.0516 44.6561 27.3484C43.8356 26.6451 42.7228 26.25 41.5625 26.25H8.75C7.58968 26.25 6.47688 26.6451 5.65641 27.3484C4.83594 28.0516 4.375 29.0054 4.375 30V30Z" fill="white"/>
<path d="M39.375 22.5C42.856 22.5 46.1944 21.3147 48.6558 19.205C51.1172 17.0952 52.5 14.2337 52.5 11.25C52.5 8.26631 51.1172 5.40483 48.6558 3.29505C46.1944 1.18526 42.856 0 39.375 0C35.894 0 32.5556 1.18526 30.0942 3.29505C27.6328 5.40483 26.25 8.26631 26.25 11.25C26.25 14.2337 27.6328 17.0952 30.0942 19.205C32.5556 21.3147 35.894 22.5 39.375 22.5V22.5ZM30.625 11.25C30.625 9.26088 31.5469 7.35322 33.1878 5.9467C34.8288 4.54018 37.0544 3.75 39.375 3.75C41.6956 3.75 43.9212 4.54018 45.5622 5.9467C47.2031 7.35322 48.125 9.26088 48.125 11.25C48.125 13.2391 47.2031 15.1468 45.5622 16.5533C43.9212 17.9598 41.6956 18.75 39.375 18.75C37.0544 18.75 34.8288 17.9598 33.1878 16.5533C31.5469 15.1468 30.625 13.2391 30.625 11.25V11.25Z" fill="white"/>
</g>
<defs>
<clipPath id="clip0_13_8">
<rect width="70" height="60" fill="white"/>
</clipPath>
</defs>
</svg>
