<svg width="60" height="60" viewBox="0 0 60 60" fill="none" xmlns="http://www.w3.org/2000/svg">
<g clip-path="url(#clip0_14_13)">
<path d="M30.5 16.8C33.5376 16.8 36 14.3823 36 11.4C36 8.41766 33.5376 6 30.5 6C27.4624 6 25 8.41766 25 11.4C25 14.3823 27.4624 16.8 30.5 16.8Z" fill="white"/>
<path d="M38.5001 39.9356C38.364 39.8342 38.2109 39.7639 38.05 39.7289C37.889 39.6938 37.7233 39.6948 37.5627 39.7316C37.4021 39.7685 37.2497 39.8405 37.1145 39.9435C36.9794 40.0465 36.8641 40.1783 36.7756 40.3313C35.5848 42.2847 34.1261 44.0202 32.452 45.4752C32.0455 45.8163 30.5304 47.1125 29.8899 46.8396C29.4465 46.6895 29.7051 45.7208 29.7914 45.3115L30.4442 43.1693C30.7152 42.2961 35.4329 26.7961 35.9503 25.0223C36.714 22.4299 36.3814 19.8784 32.8955 20.4924C31.947 20.6016 22.3268 21.9797 22.1543 21.9933C21.9926 22.0049 21.8345 22.0518 21.689 22.1311C21.5436 22.2104 21.4137 22.3207 21.3068 22.4556C21.1998 22.5906 21.1179 22.7475 21.0657 22.9175C21.0135 23.0875 20.9921 23.2672 21.0026 23.4464C21.0131 23.6256 21.0554 23.8007 21.127 23.9618C21.1986 24.1229 21.2982 24.2668 21.42 24.3852C21.5418 24.5037 21.6835 24.5944 21.837 24.6522C21.9904 24.7101 22.1527 24.7338 22.3144 24.7222C22.3144 24.7222 26.0098 24.19 26.4163 24.1491C26.6245 24.1266 26.8341 24.1713 27.0199 24.2778C27.2057 24.3843 27.3597 24.5481 27.4633 24.7495C27.6865 25.5137 27.6559 26.3411 27.3771 27.0826C27.0568 28.4471 21.9942 44.2472 21.8341 45.1614C21.6623 45.9264 21.71 46.7316 21.9705 47.4652C22.231 48.1988 22.6913 48.8243 23.2876 49.2547C24.4066 50.0809 25.7391 50.4786 27.0815 50.3871C28.3866 50.3695 29.6774 50.0826 30.8877 49.5412C33.9548 48.1768 37.1574 44.5474 38.845 41.6957C38.9903 41.406 39.0354 41.0676 38.972 40.7437C38.9085 40.4198 38.7408 40.1325 38.5001 39.9356V39.9356Z" fill="white"/>
<path d="M30 58.5C14.2599 58.5 1.5 45.7401 1.5 30C1.5 14.2599 14.2599 1.5 30 1.5C45.7401 1.5 58.5 14.2599 58.5 30C58.5 45.7401 45.7401 58.5 30 58.5Z" stroke="white" stroke-width="3"/>
</g>
<defs>
<clipPath id="clip0_14_13">
<rect width="60" height="60" fill="white"/>
</clipPath>
</defs>
</svg>
