<svg width="202" height="202" viewBox="0 0 202 202" fill="none" xmlns="http://www.w3.org/2000/svg">
<path d="M201 101C201 156.226 156.231 201 101 201C45.7691 201 1 156.226 1 101C1 45.7739 45.7691 1 101 1C156.231 1 201 45.7739 201 101Z" stroke="#DC5052"/>
<path d="M82.7584 51H93.5V55.4917H87.25V59.9833H93.5V64.475H82.7584V51ZM95.6459 51H106.392V54.9083H100.142V55.6875H106.392V64.6708H95.6459V60.5708H101.896V59.7875H95.6459V51ZM108.542 51H119.279V54.9083H113.029V55.6875H119.279V64.6708H108.542V60.5708H114.792V59.7875H108.542V51Z" fill="#DC5052"/>
<path fill-rule="evenodd" clip-rule="evenodd" d="M101.462 151L72.5292 142.967L64 70.6542H139L130.475 142.958L101.462 151ZM80.8625 103.388L81.6583 112.254H112.396L111.367 123.754L101.475 126.429H101.467L91.5917 123.763L90.9583 116.692H82.0542L83.2958 130.617L101.462 135.658L119.658 130.617L121.875 105.767L122.092 103.388L123.692 85.4333H79.2667L80.075 94.3042H113.975L113.167 103.388H80.8625V103.388Z" fill="#DC5052"/>
</svg>
