<svg width="202" height="202" viewBox="0 0 202 202" fill="none" xmlns="http://www.w3.org/2000/svg">
<path d="M201 101C201 156.226 156.231 201 101 201C45.7691 201 1 156.226 1 101C1 45.7739 45.7691 1 101 1C156.231 1 201 45.7739 201 101Z" stroke="#DC5052"/>
<path d="M73.4531 116.281C84.2946 116.928 86.6116 116.693 86.6116 118.613C86.6116 122.52 71.9799 122.531 71.9799 118.91C71.9821 117.916 72.7143 117.074 73.4531 116.281V116.281ZM79.692 93.5C72.4844 93.5 72.1585 102.186 79.5246 102.186C86.7812 102.186 86.6027 93.5 79.692 93.5V93.5ZM151 66.625V135.375C151 137.861 149.871 140.246 147.862 142.004C145.853 143.762 143.127 144.75 140.286 144.75H61.7143C58.8727 144.75 56.1475 143.762 54.1381 142.004C52.1288 140.246 51 137.861 51 135.375V66.625C51 64.1386 52.1288 61.754 54.1381 59.9959C56.1475 58.2377 58.8727 57.25 61.7143 57.25H140.286C143.127 57.25 145.853 58.2377 147.862 59.9959C149.871 61.754 151 64.1386 151 66.625V66.625ZM100.33 80.1621C100.33 82.9922 102.201 84.6309 105.433 84.6309C108.723 84.6309 110.596 82.9922 110.596 80.1621C110.596 77.332 108.728 75.8047 105.438 75.8047C102.205 75.8047 100.33 77.3359 100.33 80.1621ZM95.4598 89.0859H84.3996C78.8192 87.8066 66.1942 88.1387 66.1942 98.2168C66.1942 101.889 68.2924 104.467 71.0714 105.66C67.5692 108.467 65.9107 109.789 65.9107 111.664C65.9107 113.006 66.5335 114.246 68.4063 114.937C66.4196 116.578 65.2812 117.766 65.2812 120C65.2857 123.92 69.1987 126.195 79.4643 126.195C89.3348 126.195 95.0603 122.971 95.0603 117.264C95.0603 110.102 88.7589 110.365 73.9063 109.572L75.7768 106.949C79.5714 107.875 92.3371 108.166 92.3371 98.6621C92.3371 96.3789 91.2589 94.791 90.2388 93.6484L95.4576 93.3008L95.4598 89.0859ZM114.286 110.539L111.384 110.191C110.531 110.092 110.475 109.996 110.475 109.197V88.6016H98.7344L98.1116 92.6191C101.627 93.7031 101.906 93.5684 101.906 94.6055V109.203C101.906 110.301 101.837 110.098 98.1116 110.545V114.463H114.277L114.286 110.539ZM136.714 112.523L135.181 108.154C126.045 111.156 126.732 105.73 126.732 104.887V93.0273H135.181V88.0645H127.185C126.545 88.0645 126.739 88.5566 126.739 80.5195H121.342C120.719 85.9297 118.734 88.1133 113.752 88.6094V93.0273C118.321 93.0273 118.176 92.8613 118.176 93.5234V106.525C118.176 112.135 120.728 114.516 127.478 114.516C130.703 114.516 134.275 113.572 136.714 112.523V112.523Z" fill="#DC5052"/>
</svg>
