<svg width="202" height="202" viewBox="0 0 202 202" fill="none" xmlns="http://www.w3.org/2000/svg">
<path d="M201.355 101.268C201.355 156.494 156.586 201.268 101.355 201.268C46.1241 201.268 1.35492 156.494 1.35492 101.268C1.35492 46.0421 46.1241 1.26816 101.355 1.26816C156.586 1.26816 201.355 46.0421 201.355 101.268Z" stroke="#DC5052"/>
<path d="M119.356 73.8842C118.869 73.8842 118.544 73.9498 118.216 74.0311V74.0811H118.266C118.494 74.503 118.869 74.8311 119.159 75.2217C119.387 75.6623 119.581 76.1155 119.794 76.5561L119.859 76.4905C120.25 76.2123 120.447 75.7748 120.447 75.1061C120.284 74.9092 120.25 74.6998 120.106 74.5186C119.944 74.2405 119.584 74.0967 119.356 73.8842ZM75.0375 128.862H71.1812C71.0645 122.724 70.6902 116.594 70.0594 110.487H70.0281L64.1531 128.862H61.2062L55.3781 110.487H55.3281C54.8752 116.603 54.6043 122.731 54.5156 128.862H51C51.1904 121.157 51.7608 113.465 52.7094 105.815H57.4937L63.0594 122.744H63.0906L68.7062 105.815H73.2625C74.2719 114.215 74.875 121.897 75.0531 128.862H75.0375ZM91.7687 111.856C90.2062 120.384 88.1219 126.587 85.5687 130.444C83.55 133.422 81.3531 134.919 78.9594 134.919C78.325 134.919 77.5437 134.722 76.6 134.331V132.281C77.0719 132.347 77.6094 132.394 78.2125 132.394C79.3344 132.394 80.2312 132.069 80.9156 131.465C81.7281 130.715 82.1375 129.872 82.1375 128.944C82.1375 128.294 81.8281 126.99 81.1781 125.006L76.9625 111.856H80.7562L83.7844 121.687C84.4687 123.934 84.7625 125.481 84.6312 126.375C86.3062 121.947 87.4625 117.097 88.1156 111.856H91.7687ZM143.134 128.862H132.166V105.815H135.859V126.031H143.134V128.862ZM129.3 129.419L125.069 127.334C125.444 127.025 125.8 126.684 126.128 126.294C127.934 124.194 128.831 121.053 128.831 116.919C128.831 109.284 125.837 105.478 119.847 105.478C116.916 105.478 114.622 106.437 112.978 108.375C111.187 110.49 110.275 113.615 110.275 117.734C110.275 121.787 111.072 124.75 112.669 126.653C114.134 128.347 116.331 129.209 119.278 129.209C120.369 129.209 121.378 129.078 122.291 128.803L127.809 132.025L129.322 129.422L129.3 129.419ZM115.581 124.24C114.637 122.744 114.181 120.334 114.181 117.012C114.181 111.203 115.941 108.306 119.472 108.306C121.312 108.306 122.678 109.006 123.541 110.39C124.469 111.903 124.941 114.281 124.941 117.569C124.941 123.412 123.166 126.359 119.65 126.359C117.794 126.359 116.444 125.659 115.566 124.275L115.581 124.24ZM108.678 122.484C108.678 124.437 107.962 126.05 106.512 127.284C105.081 128.537 103.175 129.172 100.75 129.172C98.4875 129.172 96.3219 128.456 94.1906 127.022L95.1844 125.037C97.0062 125.95 98.65 126.406 100.15 126.406C101.534 126.406 102.625 126.097 103.406 125.494C104.187 124.875 104.659 124.012 104.659 122.922C104.659 121.553 103.7 120.381 101.956 119.406C100.344 118.512 97.1062 116.672 97.1062 116.672C95.3469 115.387 94.4844 114.019 94.4844 111.756C94.4844 109.884 95.1344 108.387 96.4375 107.247C97.7562 106.075 99.4312 105.506 101.516 105.506C103.589 105.488 105.622 106.083 107.359 107.215L106.466 109.2C105.069 108.585 103.563 108.259 102.037 108.24C100.85 108.24 99.9375 108.534 99.3031 109.103C98.6687 109.672 98.2781 110.387 98.2781 111.284C98.2781 112.653 99.2562 113.825 101.044 114.831C102.687 115.725 105.991 117.615 105.991 117.615C107.797 118.884 108.694 120.253 108.694 122.481L108.678 122.484ZM147.759 98.0873C145.528 98.0373 143.803 98.2655 142.356 98.8842C141.95 99.0467 141.281 99.0467 141.216 99.5686C141.444 99.7967 141.475 100.156 141.672 100.462C142.012 101.015 142.584 101.765 143.122 102.156C143.709 102.612 144.294 103.069 144.897 103.459C145.987 104.128 147.209 104.519 148.281 105.184C148.884 105.575 149.503 106.078 150.103 106.487C150.412 106.7 150.606 107.075 150.997 107.203V107.122C150.8 106.878 150.753 106.519 150.556 106.228C150.278 105.95 150.003 105.706 149.725 105.431C148.91 104.349 147.933 103.399 146.828 102.615C145.934 102.012 143.981 101.165 143.622 100.14L143.572 100.075C144.175 100.025 144.891 99.7967 145.475 99.6342C146.419 99.3905 147.297 99.4373 148.275 99.1936C148.724 99.0771 149.169 98.9469 149.609 98.803V98.5592C149.106 98.0561 148.731 97.3717 148.209 96.8998C146.771 95.6415 145.236 94.4984 143.619 93.4811C142.741 92.9123 141.634 92.553 140.706 92.0811C140.381 91.9186 139.812 91.8373 139.631 91.5592C139.128 90.9405 138.834 90.1436 138.475 89.4092C137.658 87.8205 136.898 86.2027 136.197 84.5592C135.694 83.4686 135.4 82.3936 134.781 81.3842C131.916 76.6467 128.791 73.7842 124.006 70.9686C122.981 70.3811 121.744 70.1373 120.441 69.828C119.741 69.7967 119.056 69.7467 118.356 69.7155C117.9 69.5186 117.462 68.9998 117.072 68.7373C115.478 67.728 111.375 65.5623 110.219 68.428C109.469 70.2498 111.325 72.0248 111.978 72.9373C112.45 73.5873 113.053 74.3061 113.394 75.0217C113.591 75.5092 113.637 76.0155 113.834 76.5186C114.275 77.7405 114.697 79.1061 115.284 80.2467C115.594 80.8342 115.919 81.4498 116.309 81.9717C116.537 82.2811 116.928 82.4123 117.009 82.9155C116.619 83.4842 116.587 84.3155 116.375 84.9998C115.366 88.1561 115.756 92.0467 117.172 94.3748C117.628 95.0748 118.684 96.6061 120.103 96.0186C121.356 95.5155 121.081 93.9342 121.437 92.5342C121.519 92.1936 121.469 91.9811 121.634 91.753V91.8186C122.041 92.5998 122.431 93.3498 122.791 94.1311C123.637 95.4998 125.15 96.9155 126.403 97.8592C127.072 98.3623 127.591 99.228 128.422 99.5342V99.453H128.356C128.178 99.2092 127.95 99.0936 127.722 98.8998C127.194 98.3771 126.704 97.8173 126.256 97.2248C125.1 95.6623 124.059 93.9373 123.147 92.1623C122.707 91.2853 122.306 90.3897 121.944 89.478C121.781 89.153 121.781 88.6467 121.503 88.4842C121.081 89.0873 120.462 89.6061 120.169 90.3717C119.631 91.5592 119.581 93.0405 119.372 94.5717C119.275 94.603 119.322 94.5717 119.275 94.6373C118.381 94.4092 118.072 93.4967 117.744 92.7155C116.897 90.7311 116.766 87.5561 117.484 85.278C117.681 84.6905 118.509 82.853 118.184 82.2998C118.006 81.7623 117.453 81.453 117.159 81.0311C116.784 80.5092 116.409 79.8436 116.15 79.2561C115.481 77.6936 115.156 75.9686 114.425 74.4061C114.1 73.6905 113.512 72.9405 113.041 72.2748C112.503 71.5248 111.919 70.9905 111.509 70.1092C111.362 69.7998 111.169 69.2967 111.397 68.9686C111.447 68.7405 111.559 68.6592 111.787 68.5936C112.147 68.2842 113.187 68.6748 113.547 68.853C114.572 69.2592 115.434 69.6498 116.297 70.2373C116.687 70.5155 117.109 71.0342 117.616 71.1811H118.203C119.097 71.378 120.091 71.2311 120.922 71.4905C122.403 71.9623 123.737 72.6467 124.941 73.3936C128.62 75.7554 131.612 79.045 133.616 82.9311C133.956 83.5655 134.103 84.153 134.412 84.8186C134.981 86.203 135.716 87.5842 136.3 88.903C136.884 90.2217 137.441 91.5561 138.284 92.6467C138.706 93.2342 140.369 93.5405 141.131 93.8342C141.684 94.0936 142.547 94.3217 143.034 94.6155C143.994 95.203 144.937 95.8686 145.834 96.5186C146.291 96.828 147.675 97.528 147.756 98.0811L147.759 98.0873Z" fill="#DC5052"/>
</svg>
