<svg width="80" height="80" viewBox="0 0 80 80" fill="none" xmlns="http://www.w3.org/2000/svg">
<g clip-path="url(#clip0_235_9)" filter="url(#filter0_i_235_9)">
<path d="M18.27 6.64001C17.9748 6.26031 17.6022 5.94777 17.177 5.72313C16.7517 5.4985 16.2836 5.36691 15.8036 5.33712C15.3236 5.30733 14.8427 5.38001 14.393 5.55033C13.9432 5.72066 13.5348 5.98473 13.195 6.32501L8.02497 11.5C5.60997 13.92 4.71997 17.345 5.77497 20.35C10.1537 32.7879 17.2764 44.0805 26.615 53.39C35.9246 62.7284 47.2171 69.8512 59.655 74.23C62.66 75.285 66.085 74.395 68.505 71.98L73.675 66.81C74.0153 66.4702 74.2793 66.0618 74.4497 65.612C74.62 65.1623 74.6927 64.6814 74.6629 64.2014C74.6331 63.7214 74.5015 63.2532 74.2769 62.828C74.0522 62.4028 73.7397 62.0302 73.36 61.735L61.825 52.765C61.4193 52.4504 60.9475 52.232 60.4452 52.1263C59.9428 52.0207 59.423 52.0305 58.925 52.155L47.975 54.89C46.5134 55.2553 44.9821 55.2359 43.5302 54.8337C42.0783 54.4316 40.7553 53.6603 39.69 52.595L27.41 40.31C26.3438 39.2452 25.5716 37.9224 25.1685 36.4705C24.7655 35.0186 24.7453 33.487 25.11 32.025L27.85 21.075C27.9745 20.577 27.9843 20.0572 27.8786 19.5548C27.773 19.0525 27.5546 18.5807 27.24 18.175L18.27 6.64001ZM9.41997 2.55501C10.2949 1.67976 11.3461 1.00066 12.5037 0.562816C13.6612 0.124971 14.8987 -0.0616061 16.1339 0.0154753C17.3691 0.0925568 18.5737 0.431532 19.6679 1.00989C20.762 1.58826 21.7206 2.39277 22.48 3.37001L31.45 14.9C33.095 17.015 33.675 19.77 33.025 22.37L30.29 33.32C30.1486 33.8872 30.1562 34.4812 30.3122 35.0446C30.4681 35.6079 30.767 36.1213 31.18 36.535L43.465 48.82C43.8792 49.2338 44.3934 49.5332 44.9577 49.6892C45.522 49.8452 46.1171 49.8523 46.685 49.71L57.63 46.975C58.913 46.6542 60.2523 46.6293 61.5464 46.9021C62.8405 47.175 64.0556 47.7385 65.1 48.55L76.63 57.52C80.775 60.745 81.155 66.87 77.445 70.575L72.275 75.745C68.575 79.445 63.045 81.07 57.89 79.255C44.6959 74.6126 32.7163 67.0592 22.84 57.155C12.9364 47.2801 5.38302 35.3023 0.739974 22.11C-1.07003 16.96 0.554974 11.425 4.25497 7.72501L9.42497 2.55501H9.41997Z" fill="white"/>
</g>
<defs>
<filter id="filter0_i_235_9" x="0" y="0" width="80" height="84" filterUnits="userSpaceOnUse" color-interpolation-filters="sRGB">
<feFlood flood-opacity="0" result="BackgroundImageFix"/>
<feBlend mode="normal" in="SourceGraphic" in2="BackgroundImageFix" result="shape"/>
<feColorMatrix in="SourceAlpha" type="matrix" values="0 0 0 0 0 0 0 0 0 0 0 0 0 0 0 0 0 0 127 0" result="hardAlpha"/>
<feOffset dy="4"/>
<feGaussianBlur stdDeviation="2"/>
<feComposite in2="hardAlpha" operator="arithmetic" k2="-1" k3="1"/>
<feColorMatrix type="matrix" values="0 0 0 0 0 0 0 0 0 0 0 0 0 0 0 0 0 0 0.9 0"/>
<feBlend mode="normal" in2="shape" result="effect1_innerShadow_235_9"/>
</filter>
<clipPath id="clip0_235_9">
<rect width="80" height="80" fill="white"/>
</clipPath>
</defs>
</svg>
