<svg width="202" height="202" viewBox="0 0 202 202" fill="none" xmlns="http://www.w3.org/2000/svg">
<path d="M201 101C201 156.226 156.231 201 101 201C45.7691 201 1 156.226 1 101C1 45.7739 45.7691 1 101 1C156.231 1 201 45.7739 201 101Z" stroke="#DC5052"/>
<path d="M100.642 51C75.25 51 76.8333 62.0667 76.8333 62.0667L76.8625 73.5333H101.087V76.975H67.25C67.25 76.975 51 75.1208 51 100.871C51 126.621 65.1792 125.704 65.1792 125.704H73.6375V113.758C73.6375 113.758 73.1833 99.5083 87.5958 99.5083H111.621C111.621 99.5083 125.121 99.725 125.121 86.3917V64.3417C125.121 64.3417 127.167 51 100.637 51H100.642ZM87.2833 58.7083C89.6917 58.7083 91.6417 60.6667 91.6417 63.0917C91.6417 65.5125 89.6917 67.4708 87.2833 67.4708C84.8708 67.4708 82.925 65.5125 82.925 63.0917C82.925 60.6667 84.8708 58.7083 87.2833 58.7083Z" fill="#DC5052"/>
<path d="M101.363 151C126.746 151 125.163 139.933 125.163 139.933L125.133 128.467H100.908V125.025H134.754C134.754 125.025 151.004 126.879 151.004 101.129C151.004 75.3792 136.821 76.2958 136.821 76.2958H128.363V88.2417C128.363 88.2417 128.817 102.492 114.404 102.492H90.3833C90.3833 102.492 76.8834 102.275 76.8834 115.608V137.658C76.8834 137.658 74.8334 151 101.363 151ZM114.721 143.292C112.308 143.292 110.363 141.333 110.363 138.908C110.363 136.487 112.308 134.529 114.721 134.529C117.129 134.529 119.079 136.487 119.079 138.908C119.079 141.333 117.129 143.292 114.721 143.292Z" fill="#DC5052"/>
</svg>
