<svg width="202" height="202" viewBox="0 0 202 202" fill="none" xmlns="http://www.w3.org/2000/svg">
<path d="M201 101C201 156.226 156.231 201 101 201C45.7691 201 1 156.226 1 101C1 45.7739 45.7691 1 101 1C156.231 1 201 45.7739 201 101Z" stroke="#DC5052"/>
<g clip-path="url(#clip0_33_116)">
<path d="M129.956 98.8313C129.956 93.5313 128.05 89.8625 126.419 87.0063L125.919 86.1938C123.937 83.0063 122.206 80.2063 122.206 76.9438C122.206 73.0063 125.194 69.3313 129.406 69.3313C129.531 69.3313 129.65 69.3438 129.769 69.35L129.962 69.3688C122.064 62.1134 111.725 58.0932 101 58.1063C93.8917 58.1026 86.8941 59.8677 80.6379 63.2423C74.3817 66.617 69.0635 71.4953 65.1625 77.4375C66.1625 77.4688 67.1187 77.4938 67.925 77.4938C72.4062 77.4938 79.35 76.95 79.35 76.95C81.6625 76.8125 81.9375 80.2063 79.625 80.4813C79.625 80.4813 77.3062 80.7563 74.7187 80.8875L90.3437 127.35L99.7187 99.1875L93.0312 80.8813C90.725 80.7438 88.5375 80.475 88.5375 80.475C86.225 80.3375 86.5 76.8 88.8062 76.9375C88.8062 76.9375 95.8937 77.4813 100.106 77.4813C104.594 77.4813 111.544 76.9375 111.544 76.9375C113.856 76.8 114.125 80.2 111.812 80.475C111.812 80.475 109.487 80.7438 106.906 80.8813L122.406 126.988L126.681 112.694L127.019 111.613C128.706 106.238 129.95 102.269 129.95 98.825L129.956 98.8313ZM58.1062 101C58.1058 109.055 60.373 116.947 64.6483 123.773C68.9236 130.599 75.0344 136.084 82.2812 139.6L61.8125 83.5375C59.3614 89.0325 58.0985 94.9832 58.1062 101V101Z" fill="#DC5052"/>
<path d="M88.8812 142.144L101.756 104.75L114.937 140.875C115.025 141.081 115.125 141.275 115.244 141.463C106.746 144.456 97.5217 144.694 88.8812 142.144V142.144ZM138.631 80.4188C138.819 81.7875 138.925 83.25 138.925 84.8313C138.925 89.1813 138.112 94.075 135.662 100.194L122.562 138.069C132.229 132.452 139.32 123.282 142.323 112.513C145.326 101.743 144.003 90.227 138.637 80.4188H138.631Z" fill="#DC5052"/>
<path fill-rule="evenodd" clip-rule="evenodd" d="M51 101C51 73.4313 73.4313 51 101 51C128.562 51 151 73.4313 151 101C151 128.569 128.562 151 101 151C73.4313 151 51 128.569 51 101ZM53.2938 101C53.2938 127.306 74.6937 148.706 101 148.706C127.3 148.706 148.7 127.306 148.7 101C148.7 74.6875 127.3 53.2938 101 53.2938C74.6875 53.2938 53.2938 74.6875 53.2938 101Z" fill="#DC5052"/>
</g>
<defs>
<clipPath id="clip0_33_116">
<rect width="100" height="100" fill="white" transform="translate(51 51)"/>
</clipPath>
</defs>
</svg>
