<svg width="540" height="338" viewBox="0 0 540 338" fill="none" xmlns="http://www.w3.org/2000/svg">
<path d="M27 326.5C-3 316.5 -1.5 258.667 3 231C9.16667 198.167 23.7 123.1 32.5 85.5C41.3 47.9 62.1667 22.8333 71.5 15V10.5C100.3 -5.49999 127.167 2.16668 137 8.00001V13L150.5 17H392.5L403.5 13V9.00001L404.5 8.00001C434.1 -5.99999 460.5 4.50001 470 11.5V16.5L474.5 18.5C495.3 39.3 509.5 85.5 514 106L533 203.5C539.4 225.1 539.667 269.833 539 289.5C538.667 300.667 528 325.5 488 335.5C448 345.5 427 305.667 421.5 284.5L400 222.5L391 217C359.4 239.8 330.5 225.167 320 215H220C202.5 231 189.5 229 178 229C168.8 229 153.833 221.333 147.5 217.5L138.5 225.5C134 240 121.9 276.5 109.5 306.5C94 344 64.5 339 27 326.5Z" fill="white" stroke="white"/>
<circle cx="179.5" cy="170.5" r="31.5" fill="black"/>
<ellipse cx="179.5" cy="170" rx="24.5" ry="24" fill="white"/>
<circle cx="355.5" cy="170.5" r="31.5" fill="black"/>
<ellipse cx="355.5" cy="170" rx="24.5" ry="24" fill="white"/>
<circle cx="400" cy="94" r="22" fill="black"/>
<circle cx="438" cy="131" r="22" fill="black"/>
<circle cx="476" cy="94" r="22" fill="black"/>
<circle cx="438" cy="56" r="22" fill="black"/>
<ellipse cx="438" cy="56.5" rx="16" ry="15.5" fill="white"/>
<ellipse cx="400" cy="93.5" rx="16" ry="15.5" fill="white"/>
<ellipse cx="438" cy="130.5" rx="16" ry="15.5" fill="white"/>
<ellipse cx="476" cy="93.5" rx="16" ry="15.5" fill="white"/>
<rect x="178" y="16" width="184" height="99" rx="14" fill="black"/>
<rect x="184" y="16" width="172" height="94" rx="14" fill="white"/>
<rect x="148" y="26" width="22" height="34" rx="7" fill="black"/>
<rect x="151" y="30" width="16" height="26" rx="5" fill="white"/>
<rect x="370" y="26" width="22" height="34" rx="7" fill="black"/>
<rect x="373" y="30" width="16" height="26" rx="5" fill="white"/>
<path d="M93.5 49.5C84.3 49.5 82.6667 58.5 83 63L84.5 77C90.1 86.6 98.1667 91 101.5 92C109.5 88.4 114.833 80.5 116.5 77C116.667 76 117.2 71.7 118 62.5C118.8 53.3 112.667 50 109.5 49.5H93.5Z" fill="black" stroke="black"/>
<path d="M148.544 88.6165C148.561 79.4165 139.564 77.7669 135.064 78.092L121.061 79.5666C111.451 85.1492 107.036 93.2079 106.03 96.5394C109.616 104.546 117.506 109.894 121.003 111.567C122.003 111.735 126.302 112.276 135.5 113.093C144.699 113.91 148.01 107.782 148.515 104.616L148.544 88.6165Z" fill="black" stroke="black"/>
<path d="M107.568 142.92C116.766 143.079 118.555 134.109 118.3 129.604L117.043 115.58C111.61 105.884 103.621 101.345 100.306 100.287C92.2445 103.748 86.775 111.554 85.0479 115.025C84.8639 116.022 84.2561 120.312 83.2967 129.497C82.3373 138.682 88.4124 142.087 91.57 142.642L107.568 142.92Z" fill="black" stroke="black"/>
<path d="M52.0676 102.571C52.0086 111.771 60.9979 113.462 65.5 113.157L79.5093 111.747C89.145 106.208 93.5966 98.1702 94.618 94.8433C91.0693 86.8204 83.2037 81.4366 79.7144 79.7475C78.7155 79.5744 74.419 79.0135 65.2243 78.1546C56.0296 77.2956 52.6904 83.4077 52.1701 86.5711L52.0676 102.571Z" fill="black" stroke="black"/>
</svg>
