<svg width="80" height="80" viewBox="0 0 80 80" fill="none" xmlns="http://www.w3.org/2000/svg">
<path d="M40 3.3335C25.3 3.3335 13.3333 15.3002 13.3333 30.0002C13.3333 48.5668 36.5333 74.4668 37.5333 75.5668L40 78.3002L42.4666 75.5668C43.4666 74.4668 66.6666 48.5668 66.6666 30.0002C66.6666 15.3002 54.7 3.3335 40 3.3335ZM40 68.2335C32.7333 59.5335 20 41.8002 20 30.0002C20 18.9668 28.9666 10.0002 40 10.0002C51.0333 10.0002 60 18.9668 60 30.0002C60 42.7668 45.8333 61.2002 40 68.2335ZM34.9 37.2335L29.0333 31.3335L24.3 36.0668L34.9 46.6668L54.9333 26.6335L50.2333 21.9002L34.9 37.2335Z" fill="white"/>
</svg>
