<svg width="54" height="62" viewBox="0 0 54 62" fill="none" xmlns="http://www.w3.org/2000/svg">
<path d="M10.4639 46.7022C10.4639 48.3018 11.7695 49.6075 13.376 49.6075H16.7051V57.8379C16.7051 59.9229 18.3799 61.625 20.4375 61.625C22.502 61.625 24.1699 59.9297 24.1699 57.8379V49.6006H29.9805V57.8311C29.9805 59.9161 31.6553 61.6182 33.7129 61.6182C35.7773 61.6182 37.4453 59.9229 37.4453 57.8311V49.6006H40.7744C42.3809 49.6006 43.6865 48.295 43.6865 46.6953V19.6797H10.4639V46.7022V46.7022ZM34.875 5.67973L37.9443 1.23637C38.1221 0.976603 38.0811 0.62797 37.8418 0.457072C37.6025 0.293009 37.2607 0.375041 37.083 0.634806L33.8975 5.2559C31.7988 4.42875 29.4609 3.97074 27.0068 3.97074C24.5527 3.97074 22.2148 4.42875 20.1162 5.2559L16.9307 0.641642C16.7529 0.381877 16.4111 0.293009 16.1719 0.463908C15.9326 0.62797 15.8916 0.969767 16.0693 1.2432L19.1387 5.68656C14.2578 7.9561 10.8398 12.2559 10.4023 17.2803H43.625C43.1738 12.2491 39.749 7.94926 34.875 5.67973V5.67973ZM19.9932 12.6866C19.6295 12.6866 19.2739 12.5787 18.9715 12.3767C18.6691 12.1746 18.4335 11.8874 18.2943 11.5514C18.1551 11.2154 18.1187 10.8457 18.1896 10.489C18.2606 10.1322 18.4357 9.80459 18.6929 9.54742C18.9501 9.29025 19.2777 9.11512 19.6344 9.04416C19.9911 8.97321 20.3609 9.00963 20.6969 9.1488C21.0329 9.28798 21.3201 9.52368 21.5221 9.82608C21.7242 10.1285 21.832 10.484 21.832 10.8477C21.8308 11.335 21.6366 11.802 21.292 12.1466C20.9475 12.4912 20.4805 12.6853 19.9932 12.6866V12.6866ZM34.2393 12.6866C33.8756 12.6866 33.52 12.5787 33.2176 12.3767C32.9152 12.1746 32.6795 11.8874 32.5404 11.5514C32.4012 11.2154 32.3648 10.8457 32.4357 10.489C32.5067 10.1322 32.6818 9.80459 32.939 9.54742C33.1962 9.29025 33.5238 9.11512 33.8805 9.04416C34.2372 8.97321 34.607 9.00963 34.943 9.1488C35.279 9.28798 35.5662 9.52368 35.7682 9.82608C35.9703 10.1285 36.0781 10.484 36.0781 10.8477C36.0769 11.335 35.8827 11.802 35.5381 12.1466C35.1936 12.4912 34.7266 12.6853 34.2393 12.6866ZM49.5107 19.5704C47.4463 19.5704 45.7783 21.2657 45.7783 23.3575V38.1504C45.7783 40.2354 47.4531 41.9375 49.5107 41.9375C51.5752 41.9375 53.2432 40.2422 53.2432 38.1504V23.3506C53.25 21.2588 51.582 19.5704 49.5107 19.5704ZM4.48926 19.5704C2.4248 19.5704 0.756836 21.2657 0.756836 23.3575V38.1504C0.756836 40.2354 2.43164 41.9375 4.48926 41.9375C6.55371 41.9375 8.22168 40.2422 8.22168 38.1504V23.3506C8.22168 21.2588 6.54687 19.5704 4.48926 19.5704Z" fill="white"/>
</svg>
