<svg width="54" height="44" viewBox="0 0 54 44" fill="none" xmlns="http://www.w3.org/2000/svg">
<path d="M9.5 0.125C7.17936 0.125 4.95376 1.04687 3.31282 2.68782C1.67187 4.32876 0.75 6.55436 0.75 8.875V9.75438L27 23.89L53.25 9.75875V8.875C53.25 6.55436 52.3281 4.32876 50.6872 2.68782C49.0462 1.04687 46.8206 0.125 44.5 0.125H9.5ZM53.25 14.7244L28.0369 28.3C27.7182 28.4715 27.3619 28.5614 27 28.5614C26.6381 28.5614 26.2818 28.4715 25.9631 28.3L0.75 14.7244V35.125C0.75 37.4456 1.67187 39.6712 3.31282 41.3122C4.95376 42.9531 7.17936 43.875 9.5 43.875H44.5C46.8206 43.875 49.0462 42.9531 50.6872 41.3122C52.3281 39.6712 53.25 37.4456 53.25 35.125V14.7244Z" fill="white"/>
</svg>
