<svg width="48" height="58" viewBox="0 0 48 58" fill="none" xmlns="http://www.w3.org/2000/svg">
<path d="M40.0918 30.6201C40.0645 25.958 42.1768 22.4443 46.4424 19.8535C44.0566 16.4355 40.4473 14.5557 35.6895 14.1934C31.1846 13.8379 26.2559 16.8184 24.4512 16.8184C22.5439 16.8184 18.1826 14.3164 14.751 14.3164C7.66895 14.4258 0.142578 19.9629 0.142578 31.2285C0.142578 34.5576 0.750976 37.9961 1.96777 41.5371C3.59473 46.1992 9.45996 57.6221 15.5781 57.4375C18.7773 57.3623 21.04 55.168 25.2031 55.168C29.2432 55.168 31.335 57.4375 34.9033 57.4375C41.0762 57.3486 46.3809 46.9648 47.9258 42.2891C39.6475 38.3857 40.0918 30.8594 40.0918 30.6201V30.6201ZM39.3672 48.8721C38.3896 50.2324 37.4053 51.3057 36.5029 51.9961C35.7852 52.543 35.2314 52.7754 34.8623 52.7891C34.2471 52.7822 33.6523 52.6318 32.4902 52.1875C32.4082 52.1533 32.3193 52.1191 32.2031 52.0781L31.9023 51.9619C30.7129 51.5039 30.002 51.2578 29.0928 51.0186C27.8213 50.6904 26.5566 50.5127 25.2031 50.5127C23.8223 50.5127 22.5234 50.6836 21.2314 51.0049C20.2813 51.2441 19.4814 51.5107 18.3125 51.9482C18.2646 51.9688 17.7588 52.1602 17.6152 52.2148C17.376 52.3037 17.1914 52.3721 17.0205 52.4336C16.3096 52.6797 15.8584 52.7822 15.4551 52.7891C15.4072 52.7891 15.3662 52.7822 15.332 52.7754C15.2568 52.7617 15.1611 52.7344 15.0518 52.6865C14.7441 52.5635 14.375 52.3379 13.958 52.0166C13.001 51.2715 11.9482 50.1025 10.875 48.6055C8.99512 45.9668 7.21777 42.4668 6.36328 40.0127C5.31055 36.9502 4.79102 34.0176 4.79102 31.2217C4.79102 27.1064 6.00781 23.9756 8.09961 21.8496C9.89746 20.0312 12.3174 19.0127 14.7852 18.958C15.1885 18.9648 15.7764 19.0605 16.5215 19.2656C17.1094 19.4229 17.752 19.6348 18.6201 19.9424C18.8799 20.0381 19.7754 20.3594 19.8848 20.4004C20.4111 20.5918 20.8076 20.7285 21.1973 20.8516C22.4414 21.248 23.4053 21.4668 24.4512 21.4668C25.5107 21.4668 26.4199 21.2412 27.7119 20.7969C28.1973 20.6328 29.9609 19.9766 30.2754 19.8672C32.0254 19.2451 33.3174 18.9102 34.4316 18.8281C34.7598 18.8008 35.0537 18.8008 35.334 18.8213C36.8857 18.9443 38.2119 19.252 39.3398 19.7646C36.7695 22.7314 35.4434 26.3613 35.4502 30.5928C35.4297 31.5977 35.5117 32.7598 35.7988 34.1338C36.2363 36.2187 37.0703 38.2832 38.3896 40.2178C39.3945 41.6875 40.6387 43.0137 42.1289 44.1689C41.3428 45.7891 40.3789 47.4639 39.3672 48.8721ZM32.9072 9.77051C36.373 5.65527 36.0586 1.90918 35.9561 0.5625C32.8936 0.740234 29.3525 2.64746 27.3359 4.99219C25.1143 7.50781 23.8086 10.6182 24.0889 14.125C27.3975 14.3779 30.4189 12.6758 32.9072 9.77051V9.77051Z" fill="white"/>
</svg>
