<svg width="66" height="66" viewBox="0 0 66 66" fill="none" xmlns="http://www.w3.org/2000/svg">
<path fill-rule="evenodd" clip-rule="evenodd" d="M19.7729 1.10919C23.1942 0.951687 24.285 0.916687 33 0.916687C41.715 0.916687 42.8058 0.954604 46.2242 1.10919C49.6425 1.26377 51.9758 1.80919 54.0175 2.5996C56.1554 3.40752 58.095 4.67044 59.6992 6.30377C61.3325 7.90502 62.5925 9.84169 63.3975 11.9825C64.1908 14.0242 64.7333 16.3575 64.8908 19.77C65.0483 23.1971 65.0833 24.2879 65.0833 33C65.0833 41.715 65.0454 42.8059 64.8908 46.2271C64.7362 49.6396 64.1908 51.9729 63.3975 54.0146C62.5925 56.1557 61.3304 58.0956 59.6992 59.6992C58.095 61.3325 56.1554 62.5925 54.0175 63.3975C51.9758 64.1909 49.6425 64.7334 46.23 64.8909C42.8058 65.0484 41.715 65.0834 33 65.0834C24.285 65.0834 23.1942 65.0454 19.7729 64.8909C16.3604 64.7363 14.0271 64.1909 11.9854 63.3975C9.84434 62.5924 7.90447 61.3303 6.30082 59.6992C4.6686 58.097 3.40549 56.158 2.59957 54.0175C1.80916 51.9758 1.26666 49.6425 1.10916 46.23C0.951656 42.8029 0.916656 41.7121 0.916656 33C0.916656 24.285 0.954573 23.1942 1.10916 19.7759C1.26374 16.3575 1.80916 14.0242 2.59957 11.9825C3.40668 9.84192 4.67075 7.90302 6.30374 6.30085C7.90511 4.66898 9.84303 3.4059 11.9825 2.5996C14.0242 1.80919 16.3575 1.26669 19.77 1.10919H19.7729ZM45.9646 6.88419C42.5812 6.7296 41.5662 6.69752 33 6.69752C24.4337 6.69752 23.4187 6.7296 20.0354 6.88419C16.9058 7.0271 15.2083 7.54919 14.0767 7.9896C12.5804 8.57294 11.51 9.26419 10.3871 10.3871C9.32262 11.4227 8.50343 12.6833 7.98957 14.0767C7.54916 15.2084 7.02707 16.9059 6.88416 20.0354C6.72957 23.4188 6.69749 24.4338 6.69749 33C6.69749 41.5663 6.72957 42.5813 6.88416 45.9646C7.02707 49.0942 7.54916 50.7917 7.98957 51.9234C8.50291 53.3146 9.32249 54.5775 10.3871 55.6129C11.4225 56.6775 12.6854 57.4971 14.0767 58.0104C15.2083 58.4509 16.9058 58.9729 20.0354 59.1159C23.4187 59.2704 24.4308 59.3025 33 59.3025C41.5692 59.3025 42.5812 59.2704 45.9646 59.1159C49.0942 58.9729 50.7917 58.4509 51.9233 58.0104C53.4196 57.4271 54.49 56.7359 55.6129 55.6129C56.6775 54.5775 57.4971 53.3146 58.0104 51.9234C58.4508 50.7917 58.9729 49.0942 59.1158 45.9646C59.2704 42.5813 59.3025 41.5663 59.3025 33C59.3025 24.4338 59.2704 23.4188 59.1158 20.0354C58.9729 16.9059 58.4508 15.2084 58.0104 14.0767C57.4271 12.5804 56.7358 11.51 55.6129 10.3871C54.5773 9.32273 53.3166 8.50355 51.9233 7.9896C50.7917 7.54919 49.0942 7.0271 45.9646 6.88419V6.88419ZM28.9021 42.8904C31.1907 43.8431 33.739 43.9717 36.1119 43.2542C38.4847 42.5367 40.5349 41.0177 41.9122 38.9566C43.2895 36.8954 43.9085 34.4201 43.6635 31.9532C43.4184 29.4864 42.3246 27.1812 40.5687 25.4313C39.4494 24.3127 38.096 23.4561 36.606 22.9234C35.1159 22.3906 33.5262 22.1948 31.9514 22.3501C30.3766 22.5055 28.8559 23.008 27.4986 23.8216C26.1413 24.6353 24.9813 25.7397 24.1021 27.0554C23.2229 28.3711 22.6464 29.8654 22.414 31.4307C22.1816 32.996 22.2992 34.5934 22.7582 36.1078C23.2173 37.6222 24.0064 39.016 25.0688 40.1888C26.1311 41.3616 27.4403 42.2843 28.9021 42.8904ZM21.3392 21.3392C22.8705 19.8079 24.6884 18.5932 26.6892 17.7644C28.69 16.9357 30.8344 16.5091 33 16.5091C35.1656 16.5091 37.31 16.9357 39.3108 17.7644C41.3116 18.5932 43.1295 19.8079 44.6608 21.3392C46.1921 22.8705 47.4069 24.6885 48.2356 26.6892C49.0643 28.69 49.4909 30.8344 49.4909 33C49.4909 35.1656 49.0643 37.31 48.2356 39.3108C47.4069 41.3116 46.1921 43.1295 44.6608 44.6609C41.5682 47.7535 37.3736 49.4909 33 49.4909C28.6263 49.4909 24.4318 47.7535 21.3392 44.6609C18.2465 41.5682 16.5091 37.3737 16.5091 33C16.5091 28.6264 18.2465 24.4318 21.3392 21.3392V21.3392ZM53.1483 18.965C53.5278 18.6071 53.8316 18.1766 54.0417 17.6991C54.2518 17.2216 54.364 16.7068 54.3716 16.1852C54.3792 15.6636 54.2821 15.1458 54.086 14.6624C53.8899 14.179 53.5987 13.7398 53.2299 13.371C52.861 13.0021 52.4219 12.711 51.9385 12.5149C51.4551 12.3187 50.9372 12.2216 50.4156 12.2292C49.894 12.2368 49.3792 12.349 48.9017 12.5591C48.4243 12.7693 47.9938 13.073 47.6358 13.4525C46.9396 14.1905 46.5585 15.1708 46.5733 16.1852C46.5881 17.1997 46.9976 18.1684 47.715 18.8858C48.4324 19.6032 49.4012 20.0128 50.4156 20.0276C51.43 20.0423 52.4103 19.6612 53.1483 18.965V18.965Z" fill="white"/>
</svg>
