<svg width="70" height="70" viewBox="0 0 70 70" fill="none" xmlns="http://www.w3.org/2000/svg">
<path d="M9.60641 45.4289C18.7972 54.6175 33.2795 55.2585 43.2217 47.3758L45.2933 49.4452L43.5728 51.1646L57.6209 65.2116C57.0981 66.0385 56.8717 66.675 57.1331 66.9342L57.902 67.7021C59.1522 68.9544 68.9533 59.15 67.7031 57.8999L66.9342 57.1332C66.675 56.8728 66.0395 57.0971 65.2148 57.6199L51.1645 43.5728L49.4452 45.2922L47.3747 43.2217C55.2562 33.2785 54.6164 18.795 45.4289 9.60534C35.537 -0.285439 19.4983 -0.285439 9.60641 9.60534C-0.286563 19.4994 -0.284375 35.5371 9.60641 45.4289M12.5913 12.5924C20.8337 4.34878 34.2027 4.34878 42.443 12.5924C50.6866 20.8338 50.6866 34.2027 42.443 42.4441C34.2005 50.6888 20.8359 50.6866 12.5913 42.4441C4.35094 34.2005 4.34875 20.836 12.5913 12.5924Z" fill="white"/>
<path d="M9.49703 26.1429C10.4056 28.5565 11.8185 30.7486 13.6413 32.573C20.7648 39.6977 32.3181 39.6977 39.445 32.5697C42.4571 29.5667 44.3201 25.602 44.7092 21.3665C47.1767 27.8732 45.803 35.5043 40.5639 40.7433C33.4381 47.8691 21.8848 47.8691 14.7591 40.7433C10.7625 36.75 9.01141 31.3622 9.49703 26.1429Z" fill="white"/>
</svg>
