<svg width="80" height="80" viewBox="0 0 80 80" fill="none" xmlns="http://www.w3.org/2000/svg">
<path d="M66.6667 13.3335H13.3334C9.66669 13.3335 6.70002 16.3335 6.70002 20.0002L6.66669 60.0002C6.66669 63.6668 9.66669 66.6668 13.3334 66.6668H66.6667C70.3334 66.6668 73.3334 63.6668 73.3334 60.0002V20.0002C73.3334 16.3335 70.3334 13.3335 66.6667 13.3335ZM63.3334 60.0002H16.6667C14.8334 60.0002 13.3334 58.5002 13.3334 56.6668V26.6668L36.4667 41.1335C38.6334 42.5002 41.3667 42.5002 43.5334 41.1335L66.6667 26.6668V56.6668C66.6667 58.5002 65.1667 60.0002 63.3334 60.0002ZM40 36.6668L13.3334 20.0002H66.6667L40 36.6668Z" fill="white"/>
</svg>
