<svg width="80" height="80" viewBox="0 0 80 80" fill="none" xmlns="http://www.w3.org/2000/svg">
<path d="M40 73.3334C21.59 73.3334 6.66669 58.4101 6.66669 40.0001C6.66669 21.5901 21.59 6.66675 40 6.66675C58.41 6.66675 73.3334 21.5901 73.3334 40.0001C73.3334 58.4101 58.41 73.3334 40 73.3334ZM66.6667 40.0001C66.6657 34.1248 64.7243 28.4142 61.1443 23.7556C57.5642 19.097 52.5458 15.7511 46.8688 14.2378C41.1917 12.7244 35.1737 13.1283 29.7498 15.3867C24.3258 17.6451 19.7996 21.6315 16.8741 26.7267C13.9486 31.822 12.7878 37.7407 13.5719 43.5635C14.356 49.3862 17.0411 54.7871 21.2102 58.9269C25.3792 63.0668 30.7988 65.7139 36.6269 66.4571C42.455 67.2003 48.3655 65.9979 53.44 63.0367L50.08 57.2801C46.2742 59.5009 41.8415 60.4027 37.4705 59.8454C33.0995 59.2881 29.0349 57.3029 25.9081 54.1982C22.7813 51.0934 20.7673 47.043 20.179 42.676C19.5908 38.3091 20.4612 33.8701 22.655 30.0487C24.8488 26.2272 28.2432 23.2372 32.3109 21.5431C36.3786 19.8491 40.892 19.5458 45.1498 20.6804C49.4076 21.815 53.1715 24.3239 55.8569 27.8175C58.5422 31.3111 59.9987 35.5937 60 40.0001V43.3334C60 44.2175 59.6488 45.0653 59.0237 45.6904C58.3986 46.3156 57.5507 46.6667 56.6667 46.6667C55.7826 46.6667 54.9348 46.3156 54.3097 45.6904C53.6845 45.0653 53.3334 44.2175 53.3334 43.3334V30.0001H48.82C46.8862 28.2943 44.4992 27.1859 41.9482 26.8091C39.3972 26.4323 36.7917 26.8033 34.4472 27.8772C32.1028 28.9511 30.1201 30.6818 28.7393 32.8596C27.3585 35.0374 26.6388 37.5689 26.6675 40.1474C26.6961 42.726 27.4719 45.2408 28.9007 47.3874C30.3296 49.534 32.3503 51.2202 34.718 52.2418C37.0857 53.2633 39.6988 53.5764 42.2408 53.143C44.7828 52.7096 47.1445 51.5484 49.04 49.8001C50.3644 51.3617 52.1363 52.4792 54.1162 53.0014C56.0961 53.5237 58.1886 53.4256 60.1109 52.7203C62.0332 52.0151 63.6927 50.7367 64.8652 49.058C66.0376 47.3792 66.6664 45.381 66.6667 43.3334V40.0001ZM40 33.3334C41.7681 33.3334 43.4638 34.0358 44.7141 35.286C45.9643 36.5363 46.6667 38.232 46.6667 40.0001C46.6667 41.7682 45.9643 43.4639 44.7141 44.7141C43.4638 45.9644 41.7681 46.6667 40 46.6667C38.2319 46.6667 36.5362 45.9644 35.286 44.7141C34.0357 43.4639 33.3334 41.7682 33.3334 40.0001C33.3334 38.232 34.0357 36.5363 35.286 35.286C36.5362 34.0358 38.2319 33.3334 40 33.3334Z" fill="#D9D9D9"/>
</svg>
